<svg version="1.2" xmlns="http://www.w3.org/2000/svg" viewBox="0 0 960 960" width="32" height="32">
	<title>shirt-svg</title>
	<style>
		.s0 { fill: #000000 } 
		.s1 { fill: #ffffff } 
	</style>
	<path id="Layer" fill-rule="evenodd" class="s0" d="m722.5 528.8c2.1 75.9 30.7 315.7-82 316.5-131.2-0.4-261.2-19.4-391.8-29.4-15.6-0.7-22.8-5.8-28.1-20.6-0.4-1.1-0.8-2.7-1.6-3.2-13.1-7-15.5-19.8-16-32.5-3.9-67.1 3.1-132.5 6.6-199.7-33.6 15.8-75.9 44.6-108.9 12-32.7-50.9-55.7-112.1-60.5-173-3.8-52 58.2-89.4 86.3-128.9 27.1-31 53.4-62.7 80.5-93.8 29.8-31.2 69.7-58.1 113.9-59.5 10.6-0.7 21.3-1.8 32-1.7 8.7 0.1 17.6 4.9 26.5 4.4 68.2-6.1 136.8 5.2 205.1 6.2 10.2 0.1 17 10.2 27.2 8.5 25-1.2 50.3-2.7 74.1 7.2 16.1-1.7 25.3 9.6 35.4 19 60.6 58 123.4 113.9 182.6 173.4 14.8 15.6 19.3 34.3 11.2 53.7-25.8 53.9-69.6 97.1-104.8 144.9-24.7 34.2-60.4 20.7-87.7-3.5zm-431.5-350.8c-33.4 79.1-17.1 166.4-25 249.7-3.8 59.4-8.3 118.8-12.1 178.3-1.8 28.5-3.3 57-5.2 85.5-0.3 5.2 1 7.5 6.6 8 124.1 14 248.9 18.1 373.3 29.2 12.8 1 25.8 0.4 38.7 0.2 3.2-0.1 7-0.1 7.5-5.2 10-83.8 0-168.8-3.2-252.8-7-87.2-2.9-173.2 0.6-260.6-51.4 128.6-253.1 175.4-334 51.3-16-28.5-32.6-54-47.2-83.6zm-64.2 46.1c-26 31.7-58.6 68.2-86.7 101.6-2.7 8.9 4.8 18.8 6.5 27.8 17 51.8 34.9 103.2 50.5 155.5 6.8-3.5 17.9-0.5 17.2-10.4 4.2-91.3 8.7-183.3 12.5-274.5zm495 234.1q1.1-0.3 2.3-0.7c31.5-46.8 63.1-93.7 94.4-140.1-32-31.2-64.3-62.6-97.6-95-3.1 79.2-9.1 158 0.9 235.8zm-57.4 314.2c-139.4-9.4-277.3-18.6-415.8-27.9 1.1 7.7 2.2 15.4 3.2 22.4 112.6 12 223.3 23.8 336.1 29.2 17.6 0.9 35.2 1.6 52.8 1.4 14.1-0.3 18.3-14.2 23.7-25.1zm-340.9-614c15.7 32 37.3 62.2 55.9 93.1 5.2 8.1 12.8 15.9 21.1 20.5 89.4 54.2 206.4 6.4 241.9-90-4.5 0-7.3 0.4-9.9 0-26.8-5-30.8 27.6-41.1 45-10.7 22.9-28.1 38.5-52.1 45.8-85.9 29.2-179.3-28.8-198.7-116.4-5.1 0.6-10.9 1.3-17.1 2zm236.5 17.1c-53.8-2.9-106.9-5.8-161.2-8.7 15.4 52.1 110.3 90.9 146.1 42.1 5.4-10.8 10-22 15.1-33.4zm-455.5 191.5c-38.8 33.9 11.2 110 22.8 150.8 8.7 23.2 13.3 23.8 34.5 10.4-17-54.3-32.9-108.9-57.3-161.2zm746.9-19.7c-34 44.6-64.9 93.2-97.6 139.2-2.8 7.4 12.2 13.4 17.3 19.3 31.6-43.5 68.1-83.2 98-127.9 9.6-13.5-10.3-21.5-17.7-30.6z"/>
	<path id="Layer" class="s1" d="m291.1 178c14.4 29.5 31.1 55.2 47.1 83.6 80.9 124.1 282.6 77.3 334-51.3-3.5 87.4-7.6 173.4-0.6 260.6 3.2 84 13.2 169 3.2 252.8 2.7 9.5-39.9 4.4-46.2 5-124.4-11.1-249.2-15.2-373.3-29.2-5.6-0.5-6.9-2.8-6.6-8 1.9-28.5 3.4-57 5.2-85.5 3.8-59.5 8.3-118.9 12.1-178.3 7.8-83.3-8.4-170.6 25.1-249.7z"/>
	<path id="Layer" class="s1" d="m226.8 224.1c-3.8 91.2-8.3 183.2-12.6 274.5 0.8 9.9-10.3 6.9-17.1 10.4-15.6-52.3-33.5-103.7-50.5-155.5-1.8-9-9.2-18.9-6.5-27.8 28.1-33.4 60.7-70 86.7-101.6z"/>
	<path id="Layer" class="s1" d="m721.8 458.2c-10-77.8-4-156.6-0.9-235.8 33.3 32.4 65.6 63.8 97.6 95-31.3 46.4-62.9 93.3-94.4 140.1q-1.1 0.4-2.3 0.7z"/>
	<path id="Layer" class="s1" d="m664.4 772.4c-5.4 10.9-9.6 24.8-23.7 25.1-17.6 0.2-35.2-0.5-52.8-1.4-112.8-5.4-223.5-17.2-336.1-29.2-1-7-2.1-14.7-3.2-22.4 138.5 9.3 276.4 18.5 415.8 27.9z"/>
	<path id="Layer" class="s1" d="m560 175.5c-5.1 11.4-9.7 22.6-15.1 33.4-35.8 48.8-130.6 10-146.1-42.1 54.3 2.9 107.4 5.8 161.2 8.7z"/>
	<path id="Layer" class="s1" d="m323.5 158.4c6.2-0.7 12-1.4 17.1-2 25.4 126.7 219.4 183.4 264.7 41 7.3-17.6 20.2-16 37.1-15.4-35.5 96.4-152.5 144.3-241.9 90-8.3-4.6-15.9-12.4-21.1-20.5-18.6-30.9-40.2-61.2-55.9-93.1z"/>
	<path id="Layer" class="s1" d="m104.5 367c24.4 52.2 40.3 106.9 57.3 161.2-21.2 13.4-25.7 12.8-34.5-10.4-11.6-41-61.6-116.7-22.8-150.8z"/>
	<path id="Layer" class="s1" d="m851.4 347.3c7.4 9 27.3 17.1 17.7 30.6-29.9 44.7-66.4 84.4-98 127.9-5.1-5.8-20.2-12-17.3-19.3 32.7-46 63.7-94.6 97.6-139.2z"/>
</svg>