<svg version="1.2" xmlns="http://www.w3.org/2000/svg" viewBox="0 0 512 512" width="32" height="32">
	<title>shower-svg</title>
	<style>
		.s0 { fill: #000000 } 
	</style>
	<g id="Layer">
		<path id="Layer" class="s0" d="m236.3 177.5c-4.5 3.5-5.4 9.8-2.1 14.2 3.4 4.5 9.8 5.3 14.3 1.9 4.5-3.4 5.4-9.8 2-14.2-3.3-4.5-9.7-5.3-14.2-1.9z"/>
		<path id="Layer" class="s0" d="m212.2 208.5c-3.3-4.5-9.7-5.3-14.2-1.9-4.5 3.4-5.4 9.8-2.1 14.2 3.4 4.5 9.8 5.3 14.3 1.9 4.5-3.4 5.4-9.8 2-14.2z"/>
		<path id="Layer" class="s0" d="m173.9 237.6c-3.4-4.5-9.7-5.3-14.2-1.9-4.5 3.4-5.4 9.8-2.1 14.3 3.4 4.4 9.7 5.2 14.3 1.8 4.5-3.4 5.4-9.8 2-14.2z"/>
		<path id="Layer" class="s0" d="m121.4 264.8c-4.6 3.4-5.5 9.8-2.1 14.3 3.4 4.4 9.8 5.2 14.2 1.8 4.5-3.4 5.5-9.8 2.1-14.2-3.4-4.5-9.8-5.3-14.2-1.9z"/>
		<path id="Layer" class="s0" d="m83 293.9c-4.5 3.4-5.4 9.8-2 14.2 3.4 4.5 9.7 5.3 14.2 1.9 4.5-3.4 5.5-9.8 2.1-14.2-3.4-4.5-9.8-5.3-14.3-1.9z"/>
		<path id="Layer" class="s0" d="m222.2 162.4c4.9-2 7.2-7.8 5-12.9-2.1-5.2-7.8-7.7-12.7-5.7-4.9 2-7.1 7.8-5 13 2.1 5.1 7.8 7.7 12.7 5.6z"/>
		<path id="Layer" class="s0" d="m180.5 179.7c4.9-2 7.1-7.9 5-13-2.1-5.1-7.8-7.7-12.7-5.6-4.9 2-7.2 7.8-5.1 12.9 2.2 5.2 7.9 7.7 12.8 5.7z"/>
		<path id="Layer" class="s0" d="m131 178.3c-4.9 2-7.1 7.8-5 13 2.2 5.1 7.8 7.7 12.8 5.6 4.8-2 7.1-7.8 5-13-2.1-5.1-7.9-7.6-12.8-5.6z"/>
		<path id="Layer" class="s0" d="m89.3 195.5c-4.9 2.1-7.1 7.9-5 13 2.1 5.2 7.8 7.7 12.7 5.7 4.9-2.1 7.2-7.9 5-13-2.1-5.2-7.8-7.7-12.7-5.7z"/>
		<path id="Layer" class="s0" d="m47.6 212.8c-4.9 2-7.2 7.8-5.1 13 2.2 5.1 7.9 7.7 12.8 5.6 4.9-2 7.1-7.8 5-13-2.1-5.1-7.8-7.6-12.7-5.6z"/>
		<path id="Layer" class="s0" d="m5.8 230c-4.9 2-7.1 7.9-5 13 2.1 5.2 7.8 7.7 12.7 5.7 4.9-2 7.2-7.9 5.1-13-2.2-5.2-7.9-7.7-12.8-5.7z"/>
		<path id="Layer" class="s0" d="m280.8 222c3.4-4.5 2.6-10.9-1.8-14.2-4.5-3.4-10.9-2.5-14.3 2-3.4 4.6-2.6 10.9 1.9 14.3 4.4 3.4 10.8 2.4 14.2-2.1z"/>
		<path id="Layer" class="s0" d="m235.6 248.2c-3.4 4.5-2.6 10.8 1.9 14.2 4.4 3.4 10.8 2.5 14.2-2.1 3.4-4.4 2.6-10.8-1.8-14.2-4.5-3.4-10.8-2.5-14.3 2.1z"/>
		<path id="Layer" class="s0" d="m222.6 298.6c3.4-4.4 2.6-10.8-1.8-14.2-4.5-3.4-10.8-2.4-14.3 2.1-3.4 4.5-2.6 10.8 1.9 14.2 4.4 3.4 10.8 2.5 14.2-2.1z"/>
		<path id="Layer" class="s0" d="m177.4 324.8c-3.4 4.5-2.6 10.9 1.9 14.2 4.4 3.4 10.8 2.5 14.2-2 3.4-4.5 2.6-10.9-1.8-14.3-4.5-3.3-10.8-2.4-14.3 2.1z"/>
		<path id="Layer" class="s0" d="m148.3 363.1c-3.4 4.5-2.5 10.8 1.9 14.2 4.4 3.4 10.8 2.5 14.2-2 3.4-4.5 2.6-10.9-1.8-14.3-4.5-3.3-10.8-2.4-14.3 2.1z"/>
		<path id="Layer" class="s0" d="m308.9 231.1c-5.2-2.2-11 0.1-13 5-2.1 4.9 0.5 10.6 5.6 12.7 5.2 2.2 11-0.1 13-5 2-4.9-0.5-10.6-5.6-12.7z"/>
		<path id="Layer" class="s0" d="m291.6 272.8c-5.1-2.1-10.9 0.1-13 5.1-2 4.8 0.5 10.5 5.7 12.7 5.1 2.1 10.9-0.2 13-5 2-5-0.5-10.7-5.7-12.8z"/>
		<path id="Layer" class="s0" d="m274.4 314.5c-5.2-2.1-11 0.2-13 5.1-2 4.9 0.5 10.6 5.6 12.7 5.2 2.1 11-0.1 13-5 2-4.9-0.5-10.6-5.6-12.8z"/>
		<path id="Layer" class="s0" d="m257.1 356.3c-5.1-2.1-10.9 0.1-13 5-2 4.9 0.6 10.6 5.7 12.7 5.2 2.2 11-0.1 13-5 2-4.9-0.5-10.6-5.7-12.7z"/>
		<path id="Layer" class="s0" d="m239.9 398c-5.2-2.1-11 0.1-13 5-2 5 0.5 10.6 5.6 12.8 5.2 2.1 11-0.2 13-5 2.1-5-0.5-10.7-5.6-12.8z"/>
		<path id="Layer" class="s0" d="m222.6 439.8c-5.1-2.2-10.9 0.1-13 5-2 4.9 0.5 10.6 5.7 12.7 5.1 2.1 11-0.1 13-5 2-4.9-0.5-10.6-5.7-12.7z"/>
		<path id="Layer" class="s0" d="m419.3 53.7c-25.5 0-48.7 10.3-65.5 27l-18.8 18.3 23.9 23.9 18.6-18 0.1-0.1c10.7-10.7 25.3-17.3 41.7-17.3 16.3 0 30.9 6.6 41.6 17.3 10.7 10.7 17.3 25.3 17.3 41.6v301.9h33.8v-301.9c0-51.2-41.5-92.7-92.7-92.7z"/>
		<path id="Layer" class="s0" d="m351.6 130l-23.8-23.8-2.3-2.3-84.6-0.1-18.9 18.8 113.6 113.6 18.8-18.8v-84.6z"/>
	</g>
</svg>